<svg width="286" height="60" viewBox="0 0 286 60" fill="none" xmlns="http://www.w3.org/2000/svg">
<circle cx="30.5" cy="30" r="30" fill="#384C56"/>
<path d="M34.1585 22.5472C35.2231 22.5503 36.2431 22.9589 36.9958 23.6838C37.7486 24.4086 38.1729 25.3909 38.1761 26.416V34.1527C38.1729 35.1778 37.7486 36.16 36.9958 36.8849C36.2431 37.6098 35.2231 38.0183 34.1585 38.0214H26.1243C25.0598 38.0183 24.0397 37.6098 23.287 36.8849C22.5342 36.16 22.1099 35.1778 22.1068 34.1527V26.416C22.1099 25.3909 22.5342 24.4086 23.287 23.6838C24.0397 22.9589 25.0598 22.5503 26.1243 22.5472H34.1585ZM34.1585 21H26.1243C23.0309 21 20.5 23.4371 20.5 26.416V34.1527C20.5 37.1315 23.0309 39.5686 26.1243 39.5686H34.1585C37.252 39.5686 39.7828 37.1315 39.7828 34.1527V26.416C39.7828 23.4371 37.252 21 34.1585 21Z" fill="white"/>
<path d="M35.3633 26.4168C35.1249 26.4168 34.8919 26.3487 34.6937 26.2212C34.4956 26.0937 34.3411 25.9124 34.2499 25.7004C34.1587 25.4883 34.1348 25.255 34.1813 25.0298C34.2278 24.8047 34.3426 24.5979 34.5111 24.4356C34.6797 24.2733 34.8944 24.1628 35.1282 24.118C35.362 24.0732 35.6043 24.0962 35.8245 24.184C36.0447 24.2719 36.2329 24.4206 36.3654 24.6115C36.4978 24.8023 36.5685 25.0267 36.5685 25.2562C36.5688 25.4087 36.5379 25.5598 36.4774 25.7008C36.417 25.8417 36.3282 25.9698 36.2163 26.0776C36.1043 26.1854 35.9713 26.2709 35.8249 26.3291C35.6785 26.3873 35.5217 26.4171 35.3633 26.4168ZM30.141 27.1902C30.7767 27.1902 31.3981 27.3717 31.9266 27.7118C32.4551 28.0519 32.8671 28.5352 33.1103 29.1007C33.3536 29.6663 33.4172 30.2885 33.2932 30.8889C33.1692 31.4893 32.8631 32.0407 32.4136 32.4735C31.9641 32.9064 31.3915 33.2011 30.768 33.3206C30.1446 33.44 29.4984 33.3787 28.9111 33.1444C28.3238 32.9102 27.8219 32.5135 27.4687 32.0046C27.1156 31.4956 26.9271 30.8972 26.9271 30.2851C26.928 29.4646 27.2669 28.6779 27.8694 28.0977C28.472 27.5174 29.2889 27.1911 30.141 27.1902ZM30.141 25.643C29.1876 25.643 28.2555 25.9152 27.4628 26.4253C26.67 26.9354 26.0521 27.6604 25.6873 28.5086C25.3224 29.3569 25.2269 30.2903 25.4129 31.1908C25.599 32.0912 26.0581 32.9184 26.7323 33.5676C27.4065 34.2168 28.2654 34.659 29.2005 34.8381C30.1357 35.0172 31.105 34.9253 31.9858 34.5739C32.8667 34.2226 33.6196 33.6276 34.1493 32.8642C34.679 32.1008 34.9617 31.2032 34.9617 30.2851C34.9617 29.0539 34.4538 27.8732 33.5498 27.0026C32.6457 26.132 31.4196 25.643 30.141 25.643Z" fill="white"/>
<circle cx="105.5" cy="30" r="30" fill="#384C56"/>
<path fill-rule="evenodd" clip-rule="evenodd" d="M114.783 30.2843C114.783 25.1572 110.466 21 105.141 21C99.8171 21 95.5 25.1572 95.5 30.2843C95.5 34.9182 99.0251 38.7592 103.635 39.4563V32.9689H101.186V30.2843H103.635V28.2389C103.635 25.9124 105.075 24.6263 107.277 24.6263C108.332 24.6263 109.435 24.8078 109.435 24.8078V27.0928H108.219C107.022 27.0928 106.647 27.8082 106.647 28.5435V30.2843H109.321L108.894 32.9689H106.648V39.4572C111.258 38.7604 114.783 34.9194 114.783 30.2843Z" fill="white"/>
<circle cx="180.5" cy="30" r="30" fill="#384C56"/>
<path d="M191.16 23.9584C190.385 24.2952 189.565 24.517 188.726 24.617C189.608 24.1006 190.271 23.2803 190.591 22.3099C189.757 22.7974 188.847 23.1394 187.898 23.3214C187.499 22.9028 187.019 22.5698 186.487 22.3427C185.955 22.1155 185.382 21.9989 184.803 22C182.461 22 180.565 23.868 180.565 26.1708C180.564 26.4911 180.6 26.8104 180.675 27.122C178.995 27.0433 177.35 26.6148 175.846 25.864C174.341 25.1132 173.01 24.0566 171.937 22.7619C171.561 23.3963 171.362 24.1203 171.361 24.858C171.361 26.3042 172.115 27.5826 173.255 28.3315C172.58 28.3155 171.918 28.1368 171.327 27.8107V27.8623C171.327 29.8853 172.791 31.5682 174.728 31.9513C174.363 32.0484 173.988 32.0976 173.611 32.0977C173.344 32.0981 173.077 32.0722 172.814 32.0202C173.353 33.6773 174.92 34.8825 176.776 34.9169C175.268 36.0794 173.416 36.7078 171.511 36.7032C171.173 36.7027 170.836 36.6825 170.5 36.6429C172.437 37.88 174.689 38.5344 176.988 38.5281C184.794 38.5281 189.059 32.1708 189.059 26.6572C189.059 26.4764 189.054 26.2956 189.046 26.1191C189.873 25.5303 190.589 24.7986 191.16 23.9584Z" fill="white"/>
<circle cx="255.5" cy="30" r="30" fill="#384C56"/>
<path d="M255.297 20C249.887 20 245.5 24.3847 245.5 29.7923C245.5 33.801 247.914 37.2458 251.365 38.7627C251.339 38.0807 251.36 37.2589 251.535 36.5157C251.723 35.7201 252.795 31.178 252.795 31.178C252.795 31.178 252.48 30.5529 252.48 29.6305C252.48 28.1792 253.32 27.095 254.369 27.095C255.262 27.095 255.69 27.7639 255.69 28.5639C255.69 29.46 255.117 30.7977 254.824 32.0392C254.579 33.0797 255.345 33.9234 256.373 33.9234C258.227 33.9234 259.478 31.5409 259.478 28.7169C259.478 26.5704 258.03 24.9661 255.402 24.9661C252.432 24.9661 250.578 27.1825 250.578 29.6567C250.578 30.5092 250.831 31.1125 251.225 31.5759C251.404 31.7901 251.43 31.8775 251.365 32.1223C251.317 32.3015 251.212 32.7343 251.164 32.9092C251.098 33.1584 250.897 33.2458 250.674 33.154C249.305 32.5944 248.666 31.0994 248.666 29.4119C248.666 26.6316 251.015 23.2961 255.668 23.2961C259.408 23.2961 261.87 26.0021 261.87 28.9048C261.87 32.7474 259.731 35.6152 256.582 35.6152C255.524 35.6152 254.531 35.0425 254.19 34.3955C254.19 34.3955 253.622 36.6512 253.499 37.0884C253.294 37.8447 252.887 38.5966 252.515 39.1867C253.417 39.4526 254.352 39.5881 255.292 39.5889C260.702 39.5889 265.089 35.2042 265.089 29.7966C265.089 24.389 260.707 20 255.297 20Z" fill="white"/>
</svg>
