<svg width="125" height="19" viewBox="0 0 125 19" fill="none" xmlns="http://www.w3.org/2000/svg">
<path d="M13.1961 1.90193C14.1802 1.90476 15.1232 2.28248 15.8191 2.95259C16.515 3.6227 16.9072 4.53075 16.9102 5.47843V12.6307C16.9072 13.5783 16.515 14.4864 15.8191 15.1565C15.1232 15.8266 14.1802 16.2043 13.1961 16.2072H5.76878C4.78465 16.2043 3.84168 15.8266 3.14579 15.1565C2.44991 14.4864 2.05766 13.5783 2.05472 12.6307V5.47843C2.05766 4.53075 2.44991 3.6227 3.14579 2.95259C3.84168 2.28248 4.78465 1.90476 5.76878 1.90193H13.1961ZM13.1961 0.471558H5.76878C2.90903 0.471558 0.569336 2.72459 0.569336 5.47843V12.6307C0.569336 15.3845 2.90903 17.6375 5.76878 17.6375H13.1961C16.0559 17.6375 18.3955 15.3845 18.3955 12.6307V5.47843C18.3955 2.72459 16.0559 0.471558 13.1961 0.471558Z" fill="#2E4049"/>
<path d="M14.3107 5.47876C14.0904 5.47876 13.875 5.41583 13.6917 5.29794C13.5085 5.18006 13.3657 5.0125 13.2814 4.81645C13.1971 4.62041 13.175 4.40469 13.218 4.19657C13.261 3.98846 13.3671 3.79729 13.5229 3.64725C13.6787 3.4972 13.8772 3.39502 14.0934 3.35362C14.3095 3.31223 14.5335 3.33347 14.7371 3.41468C14.9407 3.49588 15.1147 3.63339 15.2371 3.80983C15.3595 3.98626 15.4249 4.19369 15.4249 4.40588C15.4252 4.54686 15.3966 4.68651 15.3407 4.81681C15.2848 4.94712 15.2028 5.06551 15.0992 5.16519C14.9957 5.26488 14.8728 5.3439 14.7375 5.39771C14.6021 5.45152 14.4571 5.47906 14.3107 5.47876ZM9.48292 6.19375C10.0706 6.19375 10.645 6.36155 11.1336 6.67594C11.6222 6.99032 12.003 7.43717 12.2279 7.95997C12.4528 8.48277 12.5116 9.05805 12.397 9.61305C12.2824 10.1681 11.9994 10.6779 11.5839 11.078C11.1683 11.4781 10.6389 11.7506 10.0626 11.861C9.48622 11.9714 8.88881 11.9148 8.3459 11.6982C7.80299 11.4817 7.33896 11.1149 7.01249 10.6444C6.68601 10.1739 6.51175 9.62075 6.51175 9.05488C6.5126 8.29631 6.8259 7.56904 7.38292 7.03265C7.93994 6.49626 8.69518 6.19456 9.48292 6.19375ZM9.48292 4.76338C8.6015 4.76338 7.73987 5.01507 7.00699 5.48663C6.27412 5.95818 5.70291 6.62842 5.3656 7.41259C5.0283 8.19676 4.94004 9.05964 5.112 9.89211C5.28396 10.7246 5.7084 11.4892 6.33166 12.0894C6.95492 12.6896 7.749 13.0983 8.61349 13.2639C9.47798 13.4295 10.374 13.3445 11.1884 13.0197C12.0027 12.6949 12.6987 12.1448 13.1884 11.4391C13.6781 10.7334 13.9395 9.90365 13.9395 9.05488C13.9395 7.9167 13.4699 6.82514 12.6342 6.02033C11.7984 5.21552 10.6649 4.76338 9.48292 4.76338Z" fill="#2E4049"/>
<path fill-rule="evenodd" clip-rule="evenodd" d="M53.2217 9.10606C53.2217 4.36626 49.2307 0.523071 44.3086 0.523071C39.3865 0.523071 35.3955 4.36626 35.3955 9.10606C35.3955 13.3899 38.6544 16.9407 42.9159 17.5852V11.5878H40.6523V9.10606H42.9159V7.21512C42.9159 5.06439 44.2469 3.87542 46.2826 3.87542C47.2579 3.87542 48.2781 4.04325 48.2781 4.04325V6.15566H47.1536C46.0471 6.15566 45.7009 6.81701 45.7009 7.49675V9.10606H48.1727L47.778 11.5878H45.7013V17.586C49.9629 16.9419 53.2217 13.391 53.2217 9.10606Z" fill="#2E4049"/>
<path d="M89.3212 3.22528C88.6047 3.53658 87.8467 3.74167 87.071 3.83407C87.8862 3.35674 88.4992 2.5984 88.7952 1.70129C88.0245 2.15196 87.1827 2.46817 86.3059 2.63637C85.9366 2.24942 85.4926 1.94159 85.0007 1.73159C84.5088 1.52159 83.9794 1.41381 83.4445 1.4148C81.2791 1.4148 79.5267 3.14172 79.5267 5.27051C79.5252 5.56662 79.5591 5.86185 79.6278 6.14989C78.075 6.0771 76.5546 5.68099 75.1637 4.98691C73.7728 4.29283 72.5421 3.31606 71.5503 2.1191C71.2024 2.70566 71.0183 3.37491 71.0175 4.0569C71.0175 5.39387 71.715 6.57565 72.7683 7.26801C72.1443 7.2532 71.533 7.08803 70.9865 6.78654V6.83429C70.9865 8.70445 72.3393 10.2603 74.1299 10.6144C73.7932 10.7042 73.4462 10.7496 73.0977 10.7497C72.8505 10.7501 72.6038 10.7261 72.3612 10.6781C72.859 12.21 74.3078 13.3241 76.024 13.356C74.6294 14.4307 72.9173 15.0116 71.1568 15.0073C70.8443 15.0068 70.532 14.9882 70.2217 14.9516C72.0127 16.0953 74.0947 16.7002 76.2197 16.6944C83.4362 16.6944 87.3786 10.8173 87.3786 5.72015C87.3786 5.55303 87.3742 5.38591 87.3663 5.22277C88.1315 4.67845 88.7935 4.00203 89.3212 3.22528Z" fill="#2E4049"/>
<path d="M115.378 0C110.377 0 106.321 4.05345 106.321 9.05256C106.321 12.7585 108.553 15.943 111.743 17.3454C111.719 16.7149 111.739 15.9551 111.901 15.2681C112.075 14.5326 113.065 10.3337 113.065 10.3337C113.065 10.3337 112.774 9.75575 112.774 8.90304C112.774 7.56132 113.55 6.55907 114.521 6.55907C115.346 6.55907 115.742 7.17739 115.742 7.91695C115.742 8.74542 115.212 9.98207 114.941 11.1298C114.715 12.0916 115.422 12.8716 116.373 12.8716C118.087 12.8716 119.243 10.6691 119.243 8.0584C119.243 6.07411 117.905 4.59094 115.475 4.59094C112.73 4.59094 111.015 6.63989 111.015 8.92728C111.015 9.71534 111.25 10.273 111.614 10.7014C111.78 10.8994 111.804 10.9803 111.743 11.2066C111.699 11.3723 111.602 11.7724 111.557 11.934C111.496 12.1644 111.311 12.2452 111.104 12.1603C109.839 11.6431 109.249 10.2609 109.249 8.70097C109.249 6.13069 111.42 3.04716 115.722 3.04716C119.178 3.04716 121.455 5.54874 121.455 8.23217C121.455 11.7845 119.478 14.4356 116.567 14.4356C115.588 14.4356 114.67 13.9062 114.355 13.3081C114.355 13.3081 113.829 15.3934 113.716 15.7975C113.526 16.4967 113.15 17.1918 112.806 17.7374C113.64 17.9832 114.505 18.1084 115.374 18.1092C120.375 18.1092 124.43 14.0557 124.43 9.05661C124.43 4.05749 120.379 0 115.378 0Z" fill="#2E4049"/>
</svg>
