<svg width="205" height="51" viewBox="0 0 205 51" fill="none" xmlns="http://www.w3.org/2000/svg">
<path d="M56.585 40.23C56.7483 40.23 56.83 40.3467 56.83 40.58C56.83 40.86 56.7483 41 56.585 41H44.755C44.5917 41 44.51 40.86 44.51 40.58C44.51 40.3467 44.5917 40.23 44.755 40.23H45.14C47.0767 40.23 48.045 39.215 48.045 37.185L48.08 27.98H37.825L37.79 37.185C37.79 38.375 38.07 39.18 38.63 39.6C39.19 39.9967 39.89 40.195 40.73 40.195H41.115C41.2783 40.195 41.36 40.3233 41.36 40.58C41.36 40.86 41.2783 41 41.115 41H29.285C29.1217 41 29.04 40.86 29.04 40.58C29.04 40.3233 29.1217 40.195 29.285 40.195H29.705C31.6417 40.195 32.61 39.1917 32.61 37.185V18.915C32.61 16.9083 31.6417 15.905 29.705 15.905H29.285C29.1217 15.905 29.04 15.765 29.04 15.485C29.04 15.205 29.1217 15.065 29.285 15.065H41.115C41.2783 15.065 41.36 15.205 41.36 15.485C41.36 15.765 41.2783 15.905 41.115 15.905H40.73C39.89 15.905 39.19 16.115 38.63 16.535C38.0933 16.9317 37.825 17.725 37.825 18.915V26.72H48.08V18.915C48.08 17.725 47.8 16.9317 47.24 16.535C46.68 16.115 45.98 15.905 45.14 15.905H44.755C44.5917 15.905 44.51 15.765 44.51 15.485C44.51 15.2283 44.5917 15.1 44.755 15.1H56.585C56.7483 15.1 56.83 15.2283 56.83 15.485C56.83 15.765 56.7483 15.905 56.585 15.905H56.2C55.36 15.905 54.66 16.115 54.1 16.535C53.5633 16.9317 53.295 17.725 53.295 18.915L53.26 37.185C53.26 39.215 54.24 40.23 56.2 40.23H56.585ZM79.5043 39.74C79.8776 39.74 80.0643 39.9033 80.0643 40.23C80.0643 40.4167 79.9826 40.5333 79.8193 40.58C79.6093 40.6267 77.2293 40.9067 72.6793 41.42L72.6443 38.375C72.0376 39.2617 71.2909 39.9967 70.4043 40.58C69.5176 41.14 68.5143 41.42 67.3943 41.42C65.5043 41.42 64.0926 40.895 63.1593 39.845C62.2259 38.7717 61.7359 37.5 61.6893 36.03C61.6193 34.1167 61.5843 31.3167 61.5843 27.63C61.5843 26.8833 61.4209 26.3817 61.0943 26.125C60.7909 25.8683 60.2543 25.74 59.4843 25.74C59.2743 25.7167 59.1693 25.5417 59.1693 25.215C59.1693 25.0517 59.2393 24.9583 59.3793 24.935C59.5893 24.865 61.8526 24.41 66.1693 23.57C66.0993 26.8133 66.0643 29.555 66.0643 31.795C66.0643 33.615 66.0876 34.945 66.1343 35.785C66.2276 36.975 66.4726 37.92 66.8693 38.62C67.2659 39.32 67.9543 39.67 68.9343 39.67C70.2876 39.67 71.5243 38.7483 72.6443 36.905L72.5743 27.665C72.5743 26.895 72.4109 26.3933 72.0843 26.16C71.7809 25.9033 71.2443 25.7633 70.4743 25.74C70.2643 25.7167 70.1593 25.53 70.1593 25.18C70.1593 25.04 70.2293 24.9583 70.3693 24.935C70.5793 24.865 72.8426 24.41 77.1593 23.57V38.06C77.1593 39.1567 77.7776 39.7283 79.0143 39.775L79.5043 39.74ZM113.468 40.195C113.631 40.195 113.713 40.335 113.713 40.615C113.713 40.8717 113.631 41 113.468 41H104.263C104.1 41 104.018 40.8717 104.018 40.615C104.018 40.335 104.1 40.195 104.263 40.195H104.648C105.301 40.195 105.791 40.09 106.118 39.88C106.445 39.6467 106.608 39.1683 106.608 38.445L106.643 32.74C106.643 31.3867 106.62 30.22 106.573 29.24C106.503 28.0267 106.27 27.07 105.873 26.37C105.476 25.67 104.788 25.32 103.808 25.32C102.455 25.32 101.253 26.1833 100.203 27.91C100.273 28.26 100.308 28.6217 100.308 28.995V32.32V38.445C100.308 39.1683 100.471 39.6467 100.798 39.88C101.125 40.09 101.615 40.195 102.268 40.195H102.618C102.781 40.195 102.863 40.335 102.863 40.615C102.863 40.8717 102.781 41 102.618 41H93.4479C93.2846 41 93.2029 40.8717 93.2029 40.615C93.2029 40.335 93.2846 40.195 93.4479 40.195H93.8329C94.4629 40.195 94.9413 40.09 95.2679 39.88C95.6179 39.6467 95.7929 39.1683 95.7929 38.445L95.8279 32.775C95.8279 31.3983 95.8046 30.22 95.7579 29.24C95.6879 28.0267 95.4429 27.07 95.0229 26.37C94.6263 25.67 93.9379 25.32 92.9579 25.32C91.5579 25.32 90.3096 26.2767 89.2129 28.19V38.445C89.2129 39.1683 89.3763 39.6467 89.7029 39.88C90.0296 40.09 90.5196 40.195 91.1729 40.195H91.5579C91.7213 40.195 91.8029 40.335 91.8029 40.615C91.8029 40.8717 91.7213 41 91.5579 41H82.3529C82.1896 41 82.1079 40.8717 82.1079 40.615C82.1079 40.335 82.1896 40.195 82.3529 40.195H82.7029C83.3563 40.195 83.8463 40.09 84.1729 39.88C84.4996 39.6467 84.6629 39.1683 84.6629 38.445V27.665C84.6396 26.895 84.4646 26.3933 84.1379 26.16C83.8346 25.9033 83.2979 25.7633 82.5279 25.74C82.4113 25.74 82.3296 25.6817 82.2829 25.565C82.2363 25.425 82.2129 25.3083 82.2129 25.215C82.2129 25.0517 82.2829 24.9583 82.4229 24.935C82.6329 24.865 84.8963 24.41 89.2129 23.57V26.65C89.8429 25.7167 90.6013 24.97 91.4879 24.41C92.3746 23.85 93.3779 23.57 94.4979 23.57C95.8746 23.57 97.0179 23.885 97.9279 24.515C98.8379 25.1217 99.4913 25.915 99.8879 26.895C100.541 25.8917 101.323 25.0867 102.233 24.48C103.143 23.8733 104.17 23.57 105.313 23.57C106.573 23.57 107.635 23.8383 108.498 24.375C109.385 24.8883 110.038 25.565 110.458 26.405C110.878 27.2217 111.1 28.085 111.123 28.995C111.146 29.5317 111.158 30.64 111.158 32.32L111.123 38.445C111.123 39.1683 111.286 39.6467 111.613 39.88C111.94 40.09 112.43 40.195 113.083 40.195H113.468ZM134.468 37.815C134.538 37.815 134.597 37.8383 134.643 37.885C134.713 37.9317 134.748 38.0017 134.748 38.095L134.713 38.27C134.433 39.1567 133.908 39.9033 133.138 40.51C132.368 41.0933 131.54 41.385 130.653 41.385C128.903 41.385 127.76 40.615 127.223 39.075C126.313 39.8683 125.287 40.475 124.143 40.895C123 41.2917 121.892 41.49 120.818 41.49C119.348 41.49 118.193 41.1517 117.353 40.475C116.537 39.775 116.128 38.8183 116.128 37.605C116.128 35.785 117.155 34.3383 119.208 33.265C119.768 32.985 120.375 32.7633 121.028 32.6C121.682 32.4367 122.557 32.25 123.653 32.04C124.89 31.83 125.975 31.5967 126.908 31.34V29.765C126.908 28.3417 126.873 27.35 126.803 26.79C126.733 26.2067 126.558 25.7283 126.278 25.355C125.812 24.795 125.193 24.515 124.423 24.515C123.84 24.515 123.327 24.7017 122.883 25.075C122.463 25.4483 122.113 26.23 121.833 27.42C121.623 28.2833 121.285 28.925 120.818 29.345C120.375 29.765 119.862 29.975 119.278 29.975C118.695 29.975 118.182 29.8117 117.738 29.485C117.295 29.135 117.073 28.6567 117.073 28.05C117.073 27.5833 117.248 27.0117 117.598 26.335C117.972 25.635 118.695 25.005 119.768 24.445C120.865 23.8617 122.393 23.57 124.353 23.57C127.107 23.57 129.125 24.27 130.408 25.67C130.828 26.1367 131.108 26.6617 131.248 27.245C131.412 27.805 131.493 28.505 131.493 29.345L131.458 33.195C131.435 33.965 131.423 35.155 131.423 36.765C131.423 37.7917 131.528 38.4567 131.738 38.76C131.948 39.04 132.228 39.18 132.578 39.18C132.858 39.18 133.138 39.0867 133.418 38.9C133.722 38.69 133.99 38.3867 134.223 37.99C134.293 37.8733 134.375 37.815 134.468 37.815ZM123.513 39.495C124.097 39.495 124.68 39.39 125.263 39.18C125.87 38.9467 126.442 38.6083 126.978 38.165C126.885 37.5817 126.838 36.8933 126.838 36.1L126.873 32.25C124.75 32.81 123.21 33.51 122.253 34.35C121.297 35.1667 120.818 36.17 120.818 37.36C120.818 38.0133 121.063 38.5383 121.553 38.935C122.043 39.3083 122.697 39.495 123.513 39.495ZM156.314 40.195C156.478 40.195 156.559 40.335 156.559 40.615C156.559 40.8717 156.478 41 156.314 41H147.144C146.981 41 146.899 40.8717 146.899 40.615C146.899 40.335 146.981 40.195 147.144 40.195H147.529C148.159 40.195 148.638 40.09 148.964 39.88C149.291 39.6467 149.454 39.1683 149.454 38.445C149.501 36.135 149.524 34.1167 149.524 32.39C149.524 31.1767 149.501 30.1267 149.454 29.24C149.384 28.0267 149.139 27.07 148.719 26.37C148.323 25.67 147.634 25.32 146.654 25.32C145.254 25.32 144.006 26.265 142.909 28.155V38.445C142.909 39.1683 143.073 39.6467 143.399 39.88C143.726 40.09 144.216 40.195 144.869 40.195H145.254C145.418 40.195 145.499 40.335 145.499 40.615C145.499 40.8717 145.418 41 145.254 41H136.049C135.863 41 135.769 40.8717 135.769 40.615C135.769 40.335 135.863 40.195 136.049 40.195H136.399C137.053 40.195 137.543 40.09 137.869 39.88C138.196 39.6467 138.359 39.1683 138.359 38.445V27.665C138.359 26.895 138.196 26.3933 137.869 26.16C137.543 25.9033 136.994 25.7633 136.224 25.74C136.014 25.7167 135.909 25.53 135.909 25.18C135.909 25.04 135.979 24.9583 136.119 24.935C136.329 24.865 138.593 24.41 142.909 23.57V26.65C143.539 25.7167 144.298 24.97 145.184 24.41C146.071 23.85 147.074 23.57 148.194 23.57C149.454 23.57 150.516 23.8383 151.379 24.375C152.243 24.8883 152.884 25.5533 153.304 26.37C153.748 27.1867 153.981 28.05 154.004 28.96V32.39V38.445C154.004 39.1683 154.168 39.6467 154.494 39.88C154.821 40.09 155.311 40.195 155.964 40.195H156.314ZM163.434 20.21C162.664 20.21 162.01 19.9417 161.474 19.405C160.937 18.8683 160.669 18.2267 160.669 17.48C160.669 16.71 160.937 16.0567 161.474 15.52C162.01 14.9833 162.664 14.715 163.434 14.715C164.18 14.715 164.822 14.9833 165.359 15.52C165.919 16.0567 166.199 16.71 166.199 17.48C166.199 18.2267 165.919 18.8683 165.359 19.405C164.822 19.9417 164.18 20.21 163.434 20.21ZM158.849 41C158.685 41 158.604 40.86 158.604 40.58C158.604 40.3233 158.685 40.195 158.849 40.195H159.234C159.91 40.195 160.435 40.09 160.809 39.88C161.182 39.6467 161.369 39.1683 161.369 38.445V27.665C161.369 26.9183 161.205 26.4283 160.879 26.195C160.575 25.9383 160.027 25.7867 159.234 25.74C159.024 25.74 158.919 25.565 158.919 25.215C158.919 25.0517 158.989 24.9583 159.129 24.935C159.362 24.865 161.625 24.41 165.919 23.57V38.445C165.919 39.1683 166.105 39.6467 166.479 39.88C166.875 40.09 167.412 40.195 168.089 40.195H168.474C168.637 40.195 168.719 40.3233 168.719 40.58C168.719 40.86 168.637 41 168.474 41H158.849ZM178.331 41.455C176.721 41.455 175.496 41 174.656 40.09C173.816 39.1567 173.373 37.8033 173.326 36.03V25.145H170.211V23.955C171.984 23.605 173.478 22.8817 174.691 21.785C175.928 20.6883 176.756 18.9967 177.176 16.71H177.876V23.955H182.251V25.145H177.876L177.806 33.055C177.806 34.6183 177.818 35.5517 177.841 35.855C177.911 37.185 178.156 38.1067 178.576 38.62C179.019 39.11 179.603 39.355 180.326 39.355C180.793 39.355 181.201 39.2617 181.551 39.075C181.901 38.865 182.321 38.515 182.811 38.025C182.928 37.885 183.033 37.815 183.126 37.815C183.219 37.815 183.313 37.8617 183.406 37.955C183.523 38.0483 183.581 38.1417 183.581 38.235C183.581 38.2817 183.558 38.3517 183.511 38.445C182.788 39.5417 182.006 40.3233 181.166 40.79C180.326 41.2333 179.381 41.455 178.331 41.455ZM203.55 23.955C203.714 23.955 203.795 24.0833 203.795 24.34C203.795 24.48 203.76 24.5733 203.69 24.62C203.62 24.6667 203.527 24.7017 203.41 24.725C203.294 24.7483 203.212 24.7717 203.165 24.795C202.582 24.935 202.069 25.2267 201.625 25.67C201.205 26.09 200.739 26.8367 200.225 27.91C199.385 29.6833 198.289 32.0283 196.935 34.945C195.582 37.8383 194.345 40.51 193.225 42.96C192.222 45.13 191.23 46.6583 190.25 47.545C189.27 48.455 188.255 48.91 187.205 48.91C186.015 48.91 185.129 48.6533 184.545 48.14C183.962 47.6267 183.67 47.055 183.67 46.425C183.67 45.8183 183.869 45.3283 184.265 44.955C184.662 44.5817 185.164 44.395 185.77 44.395C186.167 44.395 186.494 44.4417 186.75 44.535C187.03 44.6283 187.345 44.7683 187.695 44.955C187.999 45.1417 188.279 45.27 188.535 45.34C188.792 45.4333 189.095 45.48 189.445 45.48C189.889 45.48 190.274 45.2817 190.6 44.885C190.95 44.5117 191.359 43.87 191.825 42.96L192.945 40.65C192.315 39.2733 191.604 37.675 190.81 35.855C188.104 29.8583 186.669 26.6967 186.505 26.37C186.202 25.7633 185.899 25.3433 185.595 25.11C185.292 24.8767 184.849 24.76 184.265 24.76C184.102 24.76 184.02 24.62 184.02 24.34C184.02 24.0833 184.102 23.955 184.265 23.955H192.805C192.969 23.955 193.05 24.0833 193.05 24.34C193.05 24.5967 192.957 24.7367 192.77 24.76C192.28 24.8067 191.895 24.9233 191.615 25.11C191.359 25.2967 191.23 25.5183 191.23 25.775C191.23 25.9383 191.289 26.1717 191.405 26.475C191.545 26.8717 192.059 28.1317 192.945 30.255C193.855 32.3783 194.637 34.1867 195.29 35.68C195.43 35.3767 195.582 35.05 195.745 34.7C195.909 34.3267 196.095 33.93 196.305 33.51C196.585 32.9033 197.064 31.8417 197.74 30.325C198.44 28.8083 198.849 27.8517 198.965 27.455C199.082 27.1517 199.14 26.8833 199.14 26.65C199.14 26.02 198.849 25.5417 198.265 25.215C197.682 24.8883 197.064 24.725 196.41 24.725C196.247 24.725 196.165 24.5967 196.165 24.34C196.165 24.0833 196.247 23.955 196.41 23.955H203.55Z" fill="white"/>
<path d="M21.2563 5.33409C21.2265 5.10565 20.9297 5.14311 20.9059 5.37226C18.9995 23.6999 8.60593 23.0591 2.48436 21.3021C2.25139 21.2352 2.07609 21.6378 2.27806 21.7717C14.0937 29.61 12.928 38.2126 7.88994 46.8478C7.77408 47.0463 8.01897 47.2499 8.18441 47.0903C19.9618 35.7233 22.3669 13.834 21.2563 5.33409Z" fill="#FF6D6D"/>
<circle cx="10" cy="12.5" r="4.5" fill="#77D7D3"/>
</svg>
