<svg width="388" height="192" viewBox="0 0 388 192" fill="none" xmlns="http://www.w3.org/2000/svg">
<rect width="388" height="192" fill="#77D7D3"/>
<path d="M95.8 99.378C95.362 101.13 94.0237 106.337 91.785 115H56.599L56.015 113.759C56.9883 111.18 58.3997 108.6 60.249 106.021C62.0983 103.442 63.9233 101.179 65.724 99.232C67.5733 97.2367 70.031 94.706 73.097 91.64C75.871 88.866 77.9393 86.6273 79.302 84.924C80.7133 83.2207 81.784 81.4687 82.514 79.668C83.244 77.8187 83.609 75.726 83.609 73.39C83.609 70.0807 82.733 67.5257 80.981 65.725C79.229 63.9243 76.7713 63.024 73.608 63.024C71.418 63.024 69.5443 63.462 67.987 64.338C66.4297 65.214 65.651 66.4307 65.651 67.988C65.651 68.718 65.797 69.302 66.089 69.74C66.4297 70.178 66.9407 70.689 67.622 71.273C68.352 71.9543 68.8873 72.5627 69.228 73.098C69.6173 73.6333 69.812 74.3633 69.812 75.288C69.812 76.894 69.2767 78.1593 68.206 79.084C67.1353 80.0087 65.7727 80.471 64.118 80.471C63.2907 80.471 62.4147 80.2033 61.49 79.668C60.5653 79.084 59.7867 78.2567 59.154 77.186C58.5213 76.1153 58.205 74.8743 58.205 73.463C58.205 71.2243 58.935 69.1073 60.395 67.112C61.855 65.068 63.899 63.4377 66.527 62.221C69.155 60.9557 72.148 60.323 75.506 60.323C79.302 60.323 82.6113 60.9313 85.434 62.148C88.3053 63.316 90.5197 65.0193 92.077 67.258C93.6343 69.4967 94.413 72.1003 94.413 75.069C94.413 77.8917 93.7803 80.325 92.515 82.369C91.2983 84.3643 89.7897 86.0433 87.989 87.406C86.237 88.7687 83.7793 90.3747 80.616 92.224L76.309 94.852C73.4863 96.604 71.126 98.4533 69.228 100.4C67.33 102.298 65.5537 104.366 63.899 106.605H75.579C79.667 106.605 82.8303 106.386 85.069 105.948C87.3077 105.51 89.1083 104.731 90.471 103.612C91.8337 102.493 93.1233 100.765 94.34 98.429C94.486 98.1857 94.6563 98.064 94.851 98.064C94.9483 98.064 95.0943 98.1127 95.289 98.21C95.4837 98.3073 95.6297 98.4047 95.727 98.502C95.873 98.5507 95.946 98.648 95.946 98.794L95.8 99.378ZM123.351 115.949C119.945 115.949 116.66 114.903 113.496 112.81C110.333 110.669 107.729 107.505 105.685 103.32C103.69 99.086 102.692 94.0003 102.692 88.063C102.692 82.1257 103.69 77.0643 105.685 72.879C107.729 68.645 110.333 65.4817 113.496 63.389C116.66 61.2477 119.945 60.177 123.351 60.177C126.758 60.177 130.043 61.2477 133.206 63.389C136.37 65.4817 138.949 68.645 140.944 72.879C142.988 77.0643 144.01 82.1257 144.01 88.063C144.01 94.0003 142.988 99.086 140.944 103.32C138.949 107.505 136.37 110.669 133.206 112.81C130.043 114.903 126.758 115.949 123.351 115.949ZM123.351 113.394C126.612 113.394 129.094 111.301 130.797 107.116C132.501 102.931 133.352 96.5797 133.352 88.063C133.352 79.5463 132.501 73.2197 130.797 69.083C129.094 64.8977 126.612 62.805 123.351 62.805C116.684 62.805 113.35 71.2243 113.35 88.063C113.35 104.95 116.684 113.394 123.351 113.394ZM171.115 115.949C167.708 115.949 164.423 114.903 161.26 112.81C158.097 110.669 155.493 107.505 153.449 103.32C151.454 99.086 150.456 94.0003 150.456 88.063C150.456 82.1257 151.454 77.0643 153.449 72.879C155.493 68.645 158.097 65.4817 161.26 63.389C164.423 61.2477 167.708 60.177 171.115 60.177C174.522 60.177 177.807 61.2477 180.97 63.389C184.133 65.4817 186.713 68.645 188.708 72.879C190.752 77.0643 191.774 82.1257 191.774 88.063C191.774 94.0003 190.752 99.086 188.708 103.32C186.713 107.505 184.133 110.669 180.97 112.81C177.807 114.903 174.522 115.949 171.115 115.949ZM171.115 113.394C174.376 113.394 176.858 111.301 178.561 107.116C180.264 102.931 181.116 96.5797 181.116 88.063C181.116 79.5463 180.264 73.2197 178.561 69.083C176.858 64.8977 174.376 62.805 171.115 62.805C164.448 62.805 161.114 71.2243 161.114 88.063C161.114 104.95 164.448 113.394 171.115 113.394ZM218.879 115.949C215.472 115.949 212.187 114.903 209.024 112.81C205.86 110.669 203.257 107.505 201.213 103.32C199.217 99.086 198.22 94.0003 198.22 88.063C198.22 82.1257 199.217 77.0643 201.213 72.879C203.257 68.645 205.86 65.4817 209.024 63.389C212.187 61.2477 215.472 60.177 218.879 60.177C222.285 60.177 225.57 61.2477 228.734 63.389C231.897 65.4817 234.476 68.645 236.472 72.879C238.516 77.0643 239.538 82.1257 239.538 88.063C239.538 94.0003 238.516 99.086 236.472 103.32C234.476 107.505 231.897 110.669 228.734 112.81C225.57 114.903 222.285 115.949 218.879 115.949ZM218.879 113.394C222.139 113.394 224.621 111.301 226.325 107.116C228.028 102.931 228.88 96.5797 228.88 88.063C228.88 79.5463 228.028 73.2197 226.325 69.083C224.621 64.8977 222.139 62.805 218.879 62.805C212.211 62.805 208.878 71.2243 208.878 88.063C208.878 104.95 212.211 113.394 218.879 113.394ZM266.642 115.949C263.236 115.949 259.951 114.903 256.787 112.81C253.624 110.669 251.02 107.505 248.976 103.32C246.981 99.086 245.983 94.0003 245.983 88.063C245.983 82.1257 246.981 77.0643 248.976 72.879C251.02 68.645 253.624 65.4817 256.787 63.389C259.951 61.2477 263.236 60.177 266.642 60.177C270.049 60.177 273.334 61.2477 276.497 63.389C279.661 65.4817 282.24 68.645 284.235 72.879C286.279 77.0643 287.301 82.1257 287.301 88.063C287.301 94.0003 286.279 99.086 284.235 103.32C282.24 107.505 279.661 110.669 276.497 112.81C273.334 114.903 270.049 115.949 266.642 115.949ZM266.642 113.394C269.903 113.394 272.385 111.301 274.088 107.116C275.792 102.931 276.643 96.5797 276.643 88.063C276.643 79.5463 275.792 73.2197 274.088 69.083C272.385 64.8977 269.903 62.805 266.642 62.805C259.975 62.805 256.641 71.2243 256.641 88.063C256.641 104.95 259.975 113.394 266.642 113.394ZM315.793 85.216H332.948V90.837H315.793V107.919H310.172V90.837H293.09V85.216H310.172V68.061H315.793V85.216Z" fill="#2E4049"/>
<path d="M83.78 133.8V135.64H79.26V147H77.12V135.64H72.6V133.8H83.78ZM85.7303 147V132.5H87.8703V138.6C88.2036 137.973 88.6503 137.52 89.2103 137.24C89.7836 136.947 90.417 136.8 91.1103 136.8C91.817 136.8 92.4503 136.94 93.0103 137.22C93.5836 137.487 94.037 137.893 94.3703 138.44C94.7036 138.987 94.8703 139.68 94.8703 140.52V147H92.7303V141.2C92.7303 140.213 92.5236 139.527 92.1103 139.14C91.7103 138.753 91.2036 138.56 90.5903 138.56C90.1636 138.56 89.737 138.667 89.3103 138.88C88.897 139.08 88.5503 139.413 88.2703 139.88C88.0036 140.333 87.8703 140.947 87.8703 141.72V147H85.7303ZM102.453 136.8C103.426 136.8 104.286 137.007 105.033 137.42C105.78 137.833 106.36 138.433 106.773 139.22C107.2 139.993 107.413 140.92 107.413 142C107.413 143.08 107.2 144.013 106.773 144.8C106.36 145.573 105.78 146.167 105.033 146.58C104.286 146.993 103.426 147.2 102.453 147.2C101.48 147.2 100.62 146.993 99.8731 146.58C99.1265 146.167 98.5398 145.573 98.1131 144.8C97.6865 144.013 97.4731 143.08 97.4731 142C97.4731 140.92 97.6865 139.993 98.1131 139.22C98.5398 138.433 99.1265 137.833 99.8731 137.42C100.62 137.007 101.48 136.8 102.453 136.8ZM102.453 138.48C101.853 138.48 101.34 138.62 100.913 138.9C100.5 139.167 100.18 139.56 99.9531 140.08C99.7265 140.6 99.6131 141.24 99.6131 142C99.6131 142.747 99.7265 143.387 99.9531 143.92C100.18 144.44 100.5 144.84 100.913 145.12C101.34 145.387 101.853 145.52 102.453 145.52C103.053 145.52 103.56 145.387 103.973 145.12C104.386 144.84 104.706 144.44 104.933 143.92C105.16 143.387 105.273 142.747 105.273 142C105.273 141.24 105.16 140.6 104.933 140.08C104.706 139.56 104.386 139.167 103.973 138.9C103.56 138.62 103.053 138.48 102.453 138.48ZM113.665 147.2C113.012 147.2 112.405 147.08 111.845 146.84C111.299 146.6 110.859 146.213 110.525 145.68C110.192 145.147 110.025 144.453 110.025 143.6V137H112.165V143.06C112.165 143.967 112.359 144.593 112.745 144.94C113.132 145.273 113.672 145.44 114.365 145.44C114.699 145.44 115.019 145.387 115.325 145.28C115.645 145.16 115.932 144.98 116.185 144.74C116.439 144.487 116.632 144.167 116.765 143.78C116.912 143.393 116.985 142.94 116.985 142.42V137H119.125V147H117.245L117.145 145.38C116.799 146.007 116.332 146.467 115.745 146.76C115.159 147.053 114.465 147.2 113.665 147.2ZM126.269 147.2C125.269 147.2 124.355 147.007 123.529 146.62C122.702 146.233 122.049 145.687 121.569 144.98L123.049 143.7C123.342 144.247 123.762 144.687 124.309 145.02C124.869 145.34 125.535 145.5 126.309 145.5C126.922 145.5 127.409 145.393 127.769 145.18C128.129 144.967 128.309 144.667 128.309 144.28C128.309 144.027 128.222 143.807 128.049 143.62C127.889 143.42 127.575 143.267 127.109 143.16L125.009 142.72C123.942 142.507 123.182 142.167 122.729 141.7C122.275 141.22 122.049 140.613 122.049 139.88C122.049 139.333 122.209 138.827 122.529 138.36C122.849 137.893 123.315 137.52 123.929 137.24C124.555 136.947 125.302 136.8 126.169 136.8C127.169 136.8 128.022 136.98 128.729 137.34C129.435 137.687 129.975 138.187 130.349 138.84L128.869 140.08C128.615 139.547 128.242 139.153 127.749 138.9C127.255 138.633 126.742 138.5 126.209 138.5C125.782 138.5 125.415 138.553 125.109 138.66C124.802 138.767 124.569 138.913 124.409 139.1C124.249 139.287 124.169 139.507 124.169 139.76C124.169 140.027 124.269 140.26 124.469 140.46C124.669 140.66 125.029 140.813 125.549 140.92L127.829 141.4C128.789 141.587 129.462 141.907 129.849 142.36C130.249 142.8 130.449 143.34 130.449 143.98C130.449 144.62 130.282 145.187 129.949 145.68C129.615 146.16 129.135 146.533 128.509 146.8C127.882 147.067 127.135 147.2 126.269 147.2ZM138.835 140.58C138.835 139.913 138.648 139.4 138.275 139.04C137.915 138.667 137.415 138.48 136.775 138.48C136.175 138.48 135.661 138.62 135.235 138.9C134.808 139.18 134.495 139.633 134.295 140.26L132.495 139.5C132.748 138.687 133.241 138.033 133.975 137.54C134.721 137.047 135.681 136.8 136.855 136.8C137.655 136.8 138.361 136.933 138.975 137.2C139.588 137.453 140.068 137.84 140.415 138.36C140.775 138.88 140.955 139.547 140.955 140.36V144.82C140.955 145.313 141.201 145.56 141.695 145.56C141.935 145.56 142.168 145.527 142.395 145.46L142.275 146.94C141.968 147.087 141.581 147.16 141.115 147.16C140.688 147.16 140.301 147.087 139.955 146.94C139.621 146.78 139.355 146.547 139.155 146.24C138.968 145.92 138.875 145.527 138.875 145.06V144.92L139.315 144.9C139.195 145.42 138.948 145.853 138.575 146.2C138.201 146.533 137.768 146.787 137.275 146.96C136.781 147.12 136.281 147.2 135.775 147.2C135.148 147.2 134.581 147.1 134.075 146.9C133.581 146.7 133.188 146.4 132.895 146C132.615 145.587 132.475 145.08 132.475 144.48C132.475 143.733 132.715 143.12 133.195 142.64C133.688 142.16 134.381 141.833 135.275 141.66L139.155 140.9L139.135 142.4L136.315 142.98C135.755 143.087 135.335 143.24 135.055 143.44C134.775 143.64 134.635 143.933 134.635 144.32C134.635 144.693 134.775 144.993 135.055 145.22C135.348 145.433 135.735 145.54 136.215 145.54C136.548 145.54 136.868 145.5 137.175 145.42C137.495 145.34 137.781 145.213 138.035 145.04C138.288 144.853 138.481 144.62 138.615 144.34C138.761 144.047 138.835 143.7 138.835 143.3V140.58ZM144.461 147V137H146.361L146.501 139.6L146.221 139.32C146.407 138.747 146.674 138.273 147.021 137.9C147.381 137.513 147.801 137.233 148.281 137.06C148.774 136.887 149.294 136.8 149.841 136.8C150.547 136.8 151.181 136.94 151.741 137.22C152.314 137.487 152.767 137.893 153.101 138.44C153.434 138.987 153.601 139.68 153.601 140.52V147H151.461V141.18C151.461 140.193 151.254 139.513 150.841 139.14C150.441 138.753 149.934 138.56 149.321 138.56C148.881 138.56 148.454 138.667 148.041 138.88C147.627 139.08 147.281 139.407 147.001 139.86C146.734 140.313 146.601 140.92 146.601 141.68V147H144.461ZM160.684 147.2C159.857 147.2 159.104 146.993 158.424 146.58C157.757 146.167 157.23 145.573 156.844 144.8C156.457 144.027 156.264 143.1 156.264 142.02C156.264 140.9 156.47 139.953 156.884 139.18C157.297 138.407 157.85 137.82 158.544 137.42C159.237 137.007 159.997 136.8 160.824 136.8C161.677 136.8 162.397 137.033 162.984 137.5C163.57 137.967 163.964 138.573 164.164 139.32L163.924 139.54V132.5H166.064V147H164.164L164.004 144.28L164.284 144.3C164.19 144.9 163.97 145.42 163.624 145.86C163.277 146.287 162.844 146.62 162.324 146.86C161.817 147.087 161.27 147.2 160.684 147.2ZM161.144 145.48C161.717 145.48 162.21 145.333 162.624 145.04C163.037 144.747 163.357 144.333 163.584 143.8C163.81 143.267 163.924 142.627 163.924 141.88C163.924 141.187 163.81 140.593 163.584 140.1C163.357 139.593 163.037 139.207 162.624 138.94C162.224 138.673 161.757 138.54 161.224 138.54C160.33 138.54 159.637 138.847 159.144 139.46C158.65 140.073 158.404 140.92 158.404 142C158.404 143.08 158.644 143.933 159.124 144.56C159.604 145.173 160.277 145.48 161.144 145.48ZM181.267 133.8C182.213 133.8 183.027 133.967 183.707 134.3C184.4 134.633 184.94 135.107 185.327 135.72C185.713 136.333 185.907 137.073 185.907 137.94C185.907 138.793 185.713 139.533 185.327 140.16C184.94 140.773 184.4 141.247 183.707 141.58C183.027 141.913 182.213 142.08 181.267 142.08H178.327V147H176.187V133.8H181.267ZM180.927 140.24C181.873 140.24 182.567 140.047 183.007 139.66C183.46 139.26 183.687 138.687 183.687 137.94C183.687 137.18 183.46 136.607 183.007 136.22C182.567 135.82 181.873 135.62 180.927 135.62H178.327V140.24H180.927ZM192.611 147.2C191.611 147.2 190.731 146.993 189.971 146.58C189.211 146.167 188.617 145.573 188.191 144.8C187.777 144.013 187.571 143.08 187.571 142C187.571 140.92 187.777 139.993 188.191 139.22C188.617 138.433 189.204 137.833 189.951 137.42C190.697 137.007 191.544 136.8 192.491 136.8C193.464 136.8 194.291 137 194.971 137.4C195.651 137.8 196.171 138.347 196.531 139.04C196.891 139.733 197.071 140.52 197.071 141.4C197.071 141.64 197.064 141.867 197.051 142.08C197.037 142.293 197.017 142.48 196.991 142.64H188.951V141H196.051L194.991 141.32C194.991 140.413 194.764 139.72 194.311 139.24C193.857 138.747 193.237 138.5 192.451 138.5C191.877 138.5 191.377 138.633 190.951 138.9C190.524 139.167 190.197 139.567 189.971 140.1C189.744 140.62 189.631 141.26 189.631 142.02C189.631 142.767 189.751 143.4 189.991 143.92C190.231 144.44 190.571 144.833 191.011 145.1C191.451 145.367 191.971 145.5 192.571 145.5C193.237 145.5 193.777 145.373 194.191 145.12C194.604 144.867 194.931 144.513 195.171 144.06L196.871 144.86C196.631 145.34 196.304 145.76 195.891 146.12C195.491 146.467 195.011 146.733 194.451 146.92C193.891 147.107 193.277 147.2 192.611 147.2ZM204.113 136.8C205.087 136.8 205.947 137.007 206.693 137.42C207.44 137.833 208.02 138.433 208.433 139.22C208.86 139.993 209.073 140.92 209.073 142C209.073 143.08 208.86 144.013 208.433 144.8C208.02 145.573 207.44 146.167 206.693 146.58C205.947 146.993 205.087 147.2 204.113 147.2C203.14 147.2 202.28 146.993 201.533 146.58C200.787 146.167 200.2 145.573 199.773 144.8C199.347 144.013 199.133 143.08 199.133 142C199.133 140.92 199.347 139.993 199.773 139.22C200.2 138.433 200.787 137.833 201.533 137.42C202.28 137.007 203.14 136.8 204.113 136.8ZM204.113 138.48C203.513 138.48 203 138.62 202.573 138.9C202.16 139.167 201.84 139.56 201.613 140.08C201.387 140.6 201.273 141.24 201.273 142C201.273 142.747 201.387 143.387 201.613 143.92C201.84 144.44 202.16 144.84 202.573 145.12C203 145.387 203.513 145.52 204.113 145.52C204.713 145.52 205.22 145.387 205.633 145.12C206.047 144.84 206.367 144.44 206.593 143.92C206.82 143.387 206.933 142.747 206.933 142C206.933 141.24 206.82 140.6 206.593 140.08C206.367 139.56 206.047 139.167 205.633 138.9C205.22 138.62 204.713 138.48 204.113 138.48ZM211.765 151.2V137H213.665L213.825 139.8L213.545 139.46C213.705 138.94 213.952 138.48 214.285 138.08C214.619 137.68 215.032 137.367 215.525 137.14C216.032 136.913 216.585 136.8 217.185 136.8C217.999 136.8 218.739 137.007 219.405 137.42C220.072 137.833 220.599 138.427 220.985 139.2C221.372 139.96 221.565 140.887 221.565 141.98C221.565 143.073 221.365 144.013 220.965 144.8C220.579 145.573 220.045 146.167 219.365 146.58C218.699 146.993 217.952 147.2 217.125 147.2C216.272 147.2 215.545 146.98 214.945 146.54C214.345 146.087 213.919 145.513 213.665 144.82L213.905 144.48V151.2H211.765ZM216.665 145.46C217.532 145.46 218.205 145.153 218.685 144.54C219.179 143.927 219.425 143.08 219.425 142C219.425 140.92 219.185 140.073 218.705 139.46C218.225 138.833 217.559 138.52 216.705 138.52C216.145 138.52 215.652 138.667 215.225 138.96C214.812 139.24 214.485 139.64 214.245 140.16C214.019 140.667 213.905 141.28 213.905 142C213.905 142.707 214.019 143.32 214.245 143.84C214.472 144.36 214.792 144.76 215.205 145.04C215.619 145.32 216.105 145.46 216.665 145.46ZM226.385 132.5V144.2C226.385 144.693 226.471 145.033 226.645 145.22C226.818 145.407 227.105 145.5 227.505 145.5C227.745 145.5 227.945 145.487 228.105 145.46C228.278 145.42 228.491 145.353 228.745 145.26L228.505 146.86C228.278 146.967 228.018 147.047 227.725 147.1C227.431 147.167 227.138 147.2 226.845 147.2C225.951 147.2 225.291 146.973 224.865 146.52C224.451 146.053 224.245 145.34 224.245 144.38V132.5H226.385ZM234.935 147.2C233.935 147.2 233.055 146.993 232.295 146.58C231.535 146.167 230.942 145.573 230.515 144.8C230.102 144.013 229.895 143.08 229.895 142C229.895 140.92 230.102 139.993 230.515 139.22C230.942 138.433 231.528 137.833 232.275 137.42C233.022 137.007 233.868 136.8 234.815 136.8C235.788 136.8 236.615 137 237.295 137.4C237.975 137.8 238.495 138.347 238.855 139.04C239.215 139.733 239.395 140.52 239.395 141.4C239.395 141.64 239.388 141.867 239.375 142.08C239.362 142.293 239.342 142.48 239.315 142.64H231.275V141H238.375L237.315 141.32C237.315 140.413 237.088 139.72 236.635 139.24C236.182 138.747 235.562 138.5 234.775 138.5C234.202 138.5 233.702 138.633 233.275 138.9C232.848 139.167 232.522 139.567 232.295 140.1C232.068 140.62 231.955 141.26 231.955 142.02C231.955 142.767 232.075 143.4 232.315 143.92C232.555 144.44 232.895 144.833 233.335 145.1C233.775 145.367 234.295 145.5 234.895 145.5C235.562 145.5 236.102 145.373 236.515 145.12C236.928 144.867 237.255 144.513 237.495 144.06L239.195 144.86C238.955 145.34 238.628 145.76 238.215 146.12C237.815 146.467 237.335 146.733 236.775 146.92C236.215 147.107 235.602 147.2 234.935 147.2ZM259.721 133.8V147H257.561V133.8H259.721ZM251.041 133.8V147H248.901V133.8H251.041ZM258.641 139.4V141.24H249.981V139.4H258.641ZM267.591 147.2C266.591 147.2 265.711 146.993 264.951 146.58C264.191 146.167 263.598 145.573 263.171 144.8C262.758 144.013 262.551 143.08 262.551 142C262.551 140.92 262.758 139.993 263.171 139.22C263.598 138.433 264.185 137.833 264.931 137.42C265.678 137.007 266.525 136.8 267.471 136.8C268.445 136.8 269.271 137 269.951 137.4C270.631 137.8 271.151 138.347 271.511 139.04C271.871 139.733 272.051 140.52 272.051 141.4C272.051 141.64 272.045 141.867 272.031 142.08C272.018 142.293 271.998 142.48 271.971 142.64H263.931V141H271.031L269.971 141.32C269.971 140.413 269.745 139.72 269.291 139.24C268.838 138.747 268.218 138.5 267.431 138.5C266.858 138.5 266.358 138.633 265.931 138.9C265.505 139.167 265.178 139.567 264.951 140.1C264.725 140.62 264.611 141.26 264.611 142.02C264.611 142.767 264.731 143.4 264.971 143.92C265.211 144.44 265.551 144.833 265.991 145.1C266.431 145.367 266.951 145.5 267.551 145.5C268.218 145.5 268.758 145.373 269.171 145.12C269.585 144.867 269.911 144.513 270.151 144.06L271.851 144.86C271.611 145.34 271.285 145.76 270.871 146.12C270.471 146.467 269.991 146.733 269.431 146.92C268.871 147.107 268.258 147.2 267.591 147.2ZM276.834 132.5V144.2C276.834 144.693 276.92 145.033 277.094 145.22C277.267 145.407 277.554 145.5 277.954 145.5C278.194 145.5 278.394 145.487 278.554 145.46C278.727 145.42 278.94 145.353 279.194 145.26L278.954 146.86C278.727 146.967 278.467 147.047 278.174 147.1C277.88 147.167 277.587 147.2 277.294 147.2C276.4 147.2 275.74 146.973 275.314 146.52C274.9 146.053 274.694 145.34 274.694 144.38V132.5H276.834ZM280.984 151.2V137H282.884L283.044 139.8L282.764 139.46C282.924 138.94 283.171 138.48 283.504 138.08C283.838 137.68 284.251 137.367 284.744 137.14C285.251 136.913 285.804 136.8 286.404 136.8C287.218 136.8 287.958 137.007 288.624 137.42C289.291 137.833 289.818 138.427 290.204 139.2C290.591 139.96 290.784 140.887 290.784 141.98C290.784 143.073 290.584 144.013 290.184 144.8C289.798 145.573 289.264 146.167 288.584 146.58C287.918 146.993 287.171 147.2 286.344 147.2C285.491 147.2 284.764 146.98 284.164 146.54C283.564 146.087 283.138 145.513 282.884 144.82L283.124 144.48V151.2H280.984ZM285.884 145.46C286.751 145.46 287.424 145.153 287.904 144.54C288.398 143.927 288.644 143.08 288.644 142C288.644 140.92 288.404 140.073 287.924 139.46C287.444 138.833 286.778 138.52 285.924 138.52C285.364 138.52 284.871 138.667 284.444 138.96C284.031 139.24 283.704 139.64 283.464 140.16C283.238 140.667 283.124 141.28 283.124 142C283.124 142.707 283.238 143.32 283.464 143.84C283.691 144.36 284.011 144.76 284.424 145.04C284.838 145.32 285.324 145.46 285.884 145.46ZM297.923 147.2C296.923 147.2 296.043 146.993 295.283 146.58C294.523 146.167 293.93 145.573 293.503 144.8C293.09 144.013 292.883 143.08 292.883 142C292.883 140.92 293.09 139.993 293.503 139.22C293.93 138.433 294.517 137.833 295.263 137.42C296.01 137.007 296.857 136.8 297.803 136.8C298.777 136.8 299.603 137 300.283 137.4C300.963 137.8 301.483 138.347 301.843 139.04C302.203 139.733 302.383 140.52 302.383 141.4C302.383 141.64 302.377 141.867 302.363 142.08C302.35 142.293 302.33 142.48 302.303 142.64H294.263V141H301.363L300.303 141.32C300.303 140.413 300.077 139.72 299.623 139.24C299.17 138.747 298.55 138.5 297.763 138.5C297.19 138.5 296.69 138.633 296.263 138.9C295.837 139.167 295.51 139.567 295.283 140.1C295.057 140.62 294.943 141.26 294.943 142.02C294.943 142.767 295.063 143.4 295.303 143.92C295.543 144.44 295.883 144.833 296.323 145.1C296.763 145.367 297.283 145.5 297.883 145.5C298.55 145.5 299.09 145.373 299.503 145.12C299.917 144.867 300.243 144.513 300.483 144.06L302.183 144.86C301.943 145.34 301.617 145.76 301.203 146.12C300.803 146.467 300.323 146.733 299.763 146.92C299.203 147.107 298.59 147.2 297.923 147.2ZM308.926 147.2C308.099 147.2 307.346 146.993 306.666 146.58C305.999 146.167 305.472 145.573 305.086 144.8C304.699 144.027 304.506 143.1 304.506 142.02C304.506 140.9 304.712 139.953 305.126 139.18C305.539 138.407 306.092 137.82 306.786 137.42C307.479 137.007 308.239 136.8 309.066 136.8C309.919 136.8 310.639 137.033 311.226 137.5C311.812 137.967 312.206 138.573 312.406 139.32L312.166 139.54V132.5H314.306V147H312.406L312.246 144.28L312.526 144.3C312.432 144.9 312.212 145.42 311.866 145.86C311.519 146.287 311.086 146.62 310.566 146.86C310.059 147.087 309.512 147.2 308.926 147.2ZM309.386 145.48C309.959 145.48 310.452 145.333 310.866 145.04C311.279 144.747 311.599 144.333 311.826 143.8C312.052 143.267 312.166 142.627 312.166 141.88C312.166 141.187 312.052 140.593 311.826 140.1C311.599 139.593 311.279 139.207 310.866 138.94C310.466 138.673 309.999 138.54 309.466 138.54C308.572 138.54 307.879 138.847 307.386 139.46C306.892 140.073 306.646 140.92 306.646 142C306.646 143.08 306.886 143.933 307.366 144.56C307.846 145.173 308.519 145.48 309.386 145.48Z" fill="#2E4049"/>
</svg>
