<svg width="20" height="16" viewBox="0 0 20 16" fill="none" xmlns="http://www.w3.org/2000/svg">
<g id="Twiter">
<path id="Vector" d="M19.7519 2.22503C19.0354 2.53633 18.2774 2.74143 17.5017 2.83383C18.3169 2.35649 18.9299 1.59816 19.2258 0.70105C18.4551 1.15172 17.6133 1.46792 16.7365 1.63613C16.3673 1.24918 15.9233 0.941348 15.4314 0.731349C14.9395 0.52135 14.41 0.413569 13.8752 0.414558C11.7098 0.414558 9.95739 2.14147 9.95739 4.27027C9.95585 4.56638 9.98978 4.86161 10.0585 5.14964C8.5057 5.07685 6.98524 4.68074 5.59434 3.98667C4.20344 3.29259 2.97273 2.31582 1.98095 1.11885C1.63301 1.70541 1.44901 2.37466 1.44816 3.05666C1.44816 4.39362 2.14569 5.5754 3.19895 6.26776C2.57492 6.25295 1.96368 6.08779 1.41712 5.78629V5.83404C1.41712 7.7042 2.77 9.26002 4.56058 9.61415C4.22387 9.70392 3.87689 9.74939 3.52841 9.74944C3.28114 9.74987 3.03444 9.72588 2.79189 9.67782C3.28967 11.2098 4.73845 12.3239 6.45462 12.3557C5.0601 13.4304 3.34801 14.0113 1.58742 14.007C1.27492 14.0066 0.962697 13.988 0.652344 13.9513C2.44339 15.095 4.52534 15.7 6.65039 15.6942C13.8668 15.6942 17.8093 9.81709 17.8093 4.71991C17.8093 4.55278 17.8049 4.38566 17.7969 4.22252C18.5622 3.67821 19.2242 3.00179 19.7519 2.22503Z" fill="#126360"/>
</g>
</svg>
